<svg width="150" height="50" viewBox="0 0 125 29" fill="none" xmlns="http://www.w3.org/2000/svg">
<path d="M14.5566 21.2852C14.5566 20.2891 14.2051 19.5273 13.502 19C12.7988 18.4609 11.5332 17.8984 9.70508 17.3125C7.87695 16.7148 6.42969 16.1289 5.36328 15.5547C2.45703 13.9844 1.00391 11.8691 1.00391 9.20898C1.00391 7.82617 1.39062 6.5957 2.16406 5.51758C2.94922 4.42773 4.06836 3.57813 5.52148 2.96875C6.98633 2.35937 8.62695 2.05469 10.4434 2.05469C12.2715 2.05469 13.9004 2.38867 15.3301 3.05664C16.7598 3.71289 17.8672 4.64453 18.6523 5.85156C19.4492 7.05859 19.8477 8.42969 19.8477 9.96484H14.5742C14.5742 8.79297 14.2051 7.88477 13.4668 7.24023C12.7285 6.58398 11.6914 6.25586 10.3555 6.25586C9.06641 6.25586 8.06445 6.53125 7.34961 7.08203C6.63477 7.62109 6.27734 8.33594 6.27734 9.22656C6.27734 10.0586 6.69336 10.7559 7.52539 11.3184C8.36914 11.8809 9.60547 12.4082 11.2344 12.9004C14.2344 13.8027 16.4199 14.9219 17.791 16.2578C19.1621 17.5938 19.8477 19.2578 19.8477 21.25C19.8477 23.4648 19.0098 25.2051 17.334 26.4707C15.6582 27.7246 13.4023 28.3516 10.5664 28.3516C8.59766 28.3516 6.80469 27.9941 5.1875 27.2793C3.57031 26.5527 2.33398 25.5625 1.47852 24.3086C0.634766 23.0547 0.212891 21.6016 0.212891 19.9492H5.50391C5.50391 22.7734 7.19141 24.1855 10.5664 24.1855C11.8203 24.1855 12.7988 23.9336 13.502 23.4297C14.2051 22.9141 14.5566 22.1992 14.5566 21.2852ZM73.6367 2.40625V19.2637C73.6367 22.0645 72.7578 24.2793 71 25.9082C69.2539 27.5371 66.8633 28.3516 63.8281 28.3516C60.8398 28.3516 58.4668 27.5605 56.709 25.9785C54.9512 24.3965 54.0547 22.2227 54.0195 19.457V2.40625H59.293V19.2988C59.293 20.9746 59.6914 22.1992 60.4883 22.9727C61.2969 23.7344 62.4102 24.1152 63.8281 24.1152C66.793 24.1152 68.2988 22.5566 68.3457 19.4395V2.40625H73.6367ZM92.5332 28H87.2598V2.40625H92.5332V28ZM124.613 6.67773H116.773V28H111.5V6.67773H103.766V2.40625H124.613V6.67773Z" fill="white"/>
<path d="M33.4531 28V12.707H30.623V8.98047H33.4531V7.36328C33.4531 5.23047 34.0625 3.57813 35.2812 2.40625C36.5117 1.22266 38.2285 0.630859 40.4316 0.630859C41.1348 0.630859 41.9961 0.748047 43.0156 0.982422L42.9629 4.91992C42.541 4.81445 42.0254 4.76172 41.416 4.76172C39.5059 4.76172 38.5508 5.6582 38.5508 7.45117V8.98047H42.3301V12.707H38.5508V28H33.4531Z" fill="#FF0000"/>
</svg>
